<svg width="80" height="80" viewBox="0 0 32 32" fill="none" xmlns="http://www.w3.org/2000/svg">
  <g clip-path="url(#clip0_401_1153)">
    <path d="M16 32C24.8366 32 32 24.8366 32 16C32 7.16344 24.8366 0 16 0C7.16344 0 0 7.16344 0 16C0 24.8366 7.16344 32 16 32Z" fill="#61DAFB"/>
    <path d="M16 28C22.6274 28 28 22.6274 28 16C28 9.37258 22.6274 4 16 4C9.37258 4 4 9.37258 4 16C4 22.6274 9.37258 28 16 28Z" fill="white"/>
    <path d="M16 24C20.4183 24 24 20.4183 24 16C24 11.5817 20.4183 8 16 8C11.5817 8 8 11.5817 8 16C8 20.4183 11.5817 24 16 24Z" fill="#61DAFB"/>
    <path d="M16 20C18.2091 20 20 18.2091 20 16C20 13.7909 18.2091 12 16 12C13.7909 12 12 13.7909 12 16C12 18.2091 13.7909 20 16 20Z" fill="white"/>
    <path d="M27.6893 19.8057C27.3767 19.0227 26.6962 18.5 25.9133 18.5C25.1303 18.5 24.4498 19.0227 24.1373 19.8057L21.5 26.187C21.1874 26.97 20.5069 27.5 19.724 27.5C18.941 27.5 18.2605 26.97 17.948 26.187L15.3107 19.8057C14.9982 19.0227 14.3177 18.5 13.5347 18.5C12.7518 18.5 12.0713 19.0227 11.7587 19.8057L9.12143 26.187C8.80887 26.97 8.12839 27.5 7.34544 27.5C6.56248 27.5 5.88201 26.97 5.56945 26.187L2.93214 19.8057C2.61958 19.0227 1.93911 18.5 1.15615 18.5C0.373193 18.5 -0.307287 19.0227 -0.62 19.8057L11.0686 4.19433C11.3811 3.41137 12.0616 2.88867 12.8446 2.88867C13.6275 2.88867 14.308 3.41137 14.6206 4.19433L26.3079 19.8057C26.6204 20.5886 27.3008 21.1113 28.0838 21.1113C28.8668 21.1113 29.5473 20.5886 29.8599 19.8057L27.6893 19.8057Z" fill="#000000"/>
  </g>
  <defs>
    <clipPath id="clip0_401_1153">
      <rect width="32" height="32" fill="white"/>
    </clipPath>
  </defs>
</svg>
